<mxfile host="app.diagrams.net" modified="2023-03-29T03:23:35.715Z" agent="Mozilla/5.0 (Macintosh; Intel Mac OS X 10_15_7) AppleWebKit/537.36 (KHTML, like Gecko) Chrome/110.0.0.0 Safari/537.36" etag="vQAGY4f-Ng7Wb7pJZpGs" version="21.1.1" type="github">
  <diagram name="第 1 页" id="8SJNsgWjQ3uiaRxxCY8Z">
    <mxGraphModel dx="2562" dy="2289" grid="1" gridSize="10" guides="1" tooltips="1" connect="1" arrows="1" fold="1" page="1" pageScale="1" pageWidth="827" pageHeight="1169" math="0" shadow="0">
      <root>
        <mxCell id="0" />
        <mxCell id="1" parent="0" />
        <mxCell id="trqeZTf-BzL6byui2gxn-87" value="" style="rounded=0;whiteSpace=wrap;html=1;fillColor=none;dashed=1;" vertex="1" parent="1">
          <mxGeometry x="-447.5" y="1210" width="597.5" height="540" as="geometry" />
        </mxCell>
        <mxCell id="trqeZTf-BzL6byui2gxn-48" value="" style="rounded=0;whiteSpace=wrap;html=1;fillColor=none;dashed=1;" vertex="1" parent="1">
          <mxGeometry x="-310" y="310" width="430" height="550" as="geometry" />
        </mxCell>
        <mxCell id="trqeZTf-BzL6byui2gxn-4" value="" style="edgeStyle=orthogonalEdgeStyle;rounded=0;orthogonalLoop=1;jettySize=auto;html=1;" edge="1" parent="1" source="trqeZTf-BzL6byui2gxn-1" target="trqeZTf-BzL6byui2gxn-3">
          <mxGeometry relative="1" as="geometry" />
        </mxCell>
        <mxCell id="trqeZTf-BzL6byui2gxn-1" value="对接流程" style="rounded=1;whiteSpace=wrap;html=1;" vertex="1" parent="1">
          <mxGeometry x="866.25" y="-200" width="90" height="50" as="geometry" />
        </mxCell>
        <mxCell id="trqeZTf-BzL6byui2gxn-11" value="" style="edgeStyle=orthogonalEdgeStyle;rounded=0;orthogonalLoop=1;jettySize=auto;html=1;" edge="1" parent="1" source="trqeZTf-BzL6byui2gxn-3" target="trqeZTf-BzL6byui2gxn-10">
          <mxGeometry relative="1" as="geometry" />
        </mxCell>
        <mxCell id="trqeZTf-BzL6byui2gxn-12" value="自定义工单" style="edgeLabel;html=1;align=center;verticalAlign=middle;resizable=0;points=[];" vertex="1" connectable="0" parent="trqeZTf-BzL6byui2gxn-11">
          <mxGeometry x="-0.3777" y="-3" relative="1" as="geometry">
            <mxPoint x="14" y="-3" as="offset" />
          </mxGeometry>
        </mxCell>
        <mxCell id="trqeZTf-BzL6byui2gxn-19" style="edgeStyle=orthogonalEdgeStyle;rounded=0;orthogonalLoop=1;jettySize=auto;html=1;" edge="1" parent="1" source="trqeZTf-BzL6byui2gxn-3" target="trqeZTf-BzL6byui2gxn-5">
          <mxGeometry relative="1" as="geometry" />
        </mxCell>
        <mxCell id="trqeZTf-BzL6byui2gxn-20" value="普通工单" style="edgeLabel;html=1;align=center;verticalAlign=middle;resizable=0;points=[];" vertex="1" connectable="0" parent="trqeZTf-BzL6byui2gxn-19">
          <mxGeometry x="-0.1523" y="-2" relative="1" as="geometry">
            <mxPoint as="offset" />
          </mxGeometry>
        </mxCell>
        <mxCell id="trqeZTf-BzL6byui2gxn-3" value="工单类型" style="rhombus;whiteSpace=wrap;html=1;rounded=1;" vertex="1" parent="1">
          <mxGeometry x="860" width="102.5" height="70" as="geometry" />
        </mxCell>
        <mxCell id="trqeZTf-BzL6byui2gxn-13" style="edgeStyle=orthogonalEdgeStyle;rounded=0;orthogonalLoop=1;jettySize=auto;html=1;entryX=0.5;entryY=0;entryDx=0;entryDy=0;" edge="1" parent="1" source="trqeZTf-BzL6byui2gxn-5" target="trqeZTf-BzL6byui2gxn-14">
          <mxGeometry relative="1" as="geometry">
            <mxPoint y="380" as="targetPoint" />
          </mxGeometry>
        </mxCell>
        <mxCell id="trqeZTf-BzL6byui2gxn-15" value="接口实时下发" style="edgeLabel;html=1;align=center;verticalAlign=middle;resizable=0;points=[];" vertex="1" connectable="0" parent="trqeZTf-BzL6byui2gxn-13">
          <mxGeometry x="-0.2609" y="-2" relative="1" as="geometry">
            <mxPoint as="offset" />
          </mxGeometry>
        </mxCell>
        <mxCell id="trqeZTf-BzL6byui2gxn-16" style="edgeStyle=orthogonalEdgeStyle;rounded=0;orthogonalLoop=1;jettySize=auto;html=1;entryX=0.5;entryY=0;entryDx=0;entryDy=0;" edge="1" parent="1" source="trqeZTf-BzL6byui2gxn-5" target="trqeZTf-BzL6byui2gxn-17">
          <mxGeometry relative="1" as="geometry">
            <mxPoint x="370" y="370" as="targetPoint" />
          </mxGeometry>
        </mxCell>
        <mxCell id="trqeZTf-BzL6byui2gxn-18" value="定时任务下发" style="edgeLabel;html=1;align=center;verticalAlign=middle;resizable=0;points=[];" vertex="1" connectable="0" parent="trqeZTf-BzL6byui2gxn-16">
          <mxGeometry x="-0.2888" y="-1" relative="1" as="geometry">
            <mxPoint as="offset" />
          </mxGeometry>
        </mxCell>
        <mxCell id="trqeZTf-BzL6byui2gxn-5" value="下发方式" style="rhombus;whiteSpace=wrap;html=1;rounded=1;" vertex="1" parent="1">
          <mxGeometry x="380" y="240" width="110" height="80" as="geometry" />
        </mxCell>
        <mxCell id="trqeZTf-BzL6byui2gxn-10" value="" style="whiteSpace=wrap;html=1;rounded=1;" vertex="1" parent="1">
          <mxGeometry x="1461.68" y="260" width="120" height="60" as="geometry" />
        </mxCell>
        <mxCell id="trqeZTf-BzL6byui2gxn-22" value="" style="edgeStyle=orthogonalEdgeStyle;rounded=0;orthogonalLoop=1;jettySize=auto;html=1;exitX=0.5;exitY=1;exitDx=0;exitDy=0;" edge="1" parent="1" source="trqeZTf-BzL6byui2gxn-14" target="trqeZTf-BzL6byui2gxn-21">
          <mxGeometry relative="1" as="geometry">
            <mxPoint x="0.05882352941193858" y="430" as="sourcePoint" />
          </mxGeometry>
        </mxCell>
        <mxCell id="trqeZTf-BzL6byui2gxn-14" value="创建新的工单类型" style="rounded=1;whiteSpace=wrap;html=1;" vertex="1" parent="1">
          <mxGeometry x="-60" y="350" width="120" height="60" as="geometry" />
        </mxCell>
        <mxCell id="trqeZTf-BzL6byui2gxn-51" style="edgeStyle=orthogonalEdgeStyle;rounded=0;orthogonalLoop=1;jettySize=auto;html=1;entryX=1;entryY=0.5;entryDx=0;entryDy=0;dashed=1;" edge="1" parent="1" source="trqeZTf-BzL6byui2gxn-17" target="trqeZTf-BzL6byui2gxn-48">
          <mxGeometry relative="1" as="geometry">
            <Array as="points">
              <mxPoint x="250" y="380" />
              <mxPoint x="250" y="585" />
            </Array>
          </mxGeometry>
        </mxCell>
        <mxCell id="trqeZTf-BzL6byui2gxn-52" value="设置基础信息" style="edgeLabel;html=1;align=center;verticalAlign=middle;resizable=0;points=[];" vertex="1" connectable="0" parent="trqeZTf-BzL6byui2gxn-51">
          <mxGeometry x="0.1828" relative="1" as="geometry">
            <mxPoint y="-1" as="offset" />
          </mxGeometry>
        </mxCell>
        <mxCell id="trqeZTf-BzL6byui2gxn-54" style="edgeStyle=orthogonalEdgeStyle;rounded=0;orthogonalLoop=1;jettySize=auto;html=1;" edge="1" parent="1" source="trqeZTf-BzL6byui2gxn-17" target="trqeZTf-BzL6byui2gxn-55">
          <mxGeometry relative="1" as="geometry">
            <mxPoint x="926.25" y="509" as="targetPoint" />
          </mxGeometry>
        </mxCell>
        <mxCell id="trqeZTf-BzL6byui2gxn-92" style="edgeStyle=orthogonalEdgeStyle;rounded=0;orthogonalLoop=1;jettySize=auto;html=1;entryX=1;entryY=0.5;entryDx=0;entryDy=0;dashed=1;" edge="1" parent="1" source="trqeZTf-BzL6byui2gxn-17" target="trqeZTf-BzL6byui2gxn-90">
          <mxGeometry relative="1" as="geometry">
            <Array as="points">
              <mxPoint x="340" y="380" />
              <mxPoint x="340" y="1030" />
            </Array>
          </mxGeometry>
        </mxCell>
        <mxCell id="trqeZTf-BzL6byui2gxn-93" value="设置工单属性" style="edgeLabel;html=1;align=center;verticalAlign=middle;resizable=0;points=[];" vertex="1" connectable="0" parent="trqeZTf-BzL6byui2gxn-92">
          <mxGeometry x="-0.1025" relative="1" as="geometry">
            <mxPoint as="offset" />
          </mxGeometry>
        </mxCell>
        <mxCell id="trqeZTf-BzL6byui2gxn-110" style="edgeStyle=orthogonalEdgeStyle;rounded=0;orthogonalLoop=1;jettySize=auto;html=1;entryX=1;entryY=0.5;entryDx=0;entryDy=0;dashed=1;" edge="1" parent="1" source="trqeZTf-BzL6byui2gxn-17" target="trqeZTf-BzL6byui2gxn-87">
          <mxGeometry relative="1" as="geometry">
            <mxPoint x="210" y="1665" as="targetPoint" />
            <Array as="points">
              <mxPoint x="430" y="380" />
              <mxPoint x="430" y="1480" />
            </Array>
          </mxGeometry>
        </mxCell>
        <mxCell id="trqeZTf-BzL6byui2gxn-111" value="流程绑定操作" style="edgeLabel;html=1;align=center;verticalAlign=middle;resizable=0;points=[];" vertex="1" connectable="0" parent="trqeZTf-BzL6byui2gxn-110">
          <mxGeometry x="-0.2385" y="-1" relative="1" as="geometry">
            <mxPoint y="-1" as="offset" />
          </mxGeometry>
        </mxCell>
        <mxCell id="trqeZTf-BzL6byui2gxn-112" style="edgeStyle=orthogonalEdgeStyle;rounded=0;orthogonalLoop=1;jettySize=auto;html=1;dashed=1;" edge="1" parent="1" source="trqeZTf-BzL6byui2gxn-17" target="trqeZTf-BzL6byui2gxn-96">
          <mxGeometry relative="1" as="geometry">
            <Array as="points">
              <mxPoint x="520" y="380" />
              <mxPoint x="520" y="1885" />
            </Array>
          </mxGeometry>
        </mxCell>
        <mxCell id="trqeZTf-BzL6byui2gxn-113" value="设置扩展信息" style="edgeLabel;html=1;align=center;verticalAlign=middle;resizable=0;points=[];" vertex="1" connectable="0" parent="trqeZTf-BzL6byui2gxn-112">
          <mxGeometry x="-0.2205" y="2" relative="1" as="geometry">
            <mxPoint y="-1" as="offset" />
          </mxGeometry>
        </mxCell>
        <mxCell id="trqeZTf-BzL6byui2gxn-17" value="先设置基础信息" style="rounded=1;whiteSpace=wrap;html=1;" vertex="1" parent="1">
          <mxGeometry x="866.25" y="349" width="120" height="60" as="geometry" />
        </mxCell>
        <mxCell id="trqeZTf-BzL6byui2gxn-24" value="" style="edgeStyle=orthogonalEdgeStyle;rounded=0;orthogonalLoop=1;jettySize=auto;html=1;" edge="1" parent="1" source="trqeZTf-BzL6byui2gxn-21" target="trqeZTf-BzL6byui2gxn-23">
          <mxGeometry relative="1" as="geometry" />
        </mxCell>
        <mxCell id="trqeZTf-BzL6byui2gxn-25" value="是" style="edgeLabel;html=1;align=center;verticalAlign=middle;resizable=0;points=[];" vertex="1" connectable="0" parent="trqeZTf-BzL6byui2gxn-24">
          <mxGeometry x="-0.1544" y="5" relative="1" as="geometry">
            <mxPoint x="-5" y="-9" as="offset" />
          </mxGeometry>
        </mxCell>
        <mxCell id="trqeZTf-BzL6byui2gxn-27" value="" style="edgeStyle=orthogonalEdgeStyle;rounded=0;orthogonalLoop=1;jettySize=auto;html=1;" edge="1" parent="1" source="trqeZTf-BzL6byui2gxn-21" target="trqeZTf-BzL6byui2gxn-26">
          <mxGeometry relative="1" as="geometry" />
        </mxCell>
        <mxCell id="trqeZTf-BzL6byui2gxn-21" value="用已有流程图？" style="rhombus;whiteSpace=wrap;html=1;rounded=1;" vertex="1" parent="1">
          <mxGeometry x="-50" y="460" width="100" height="60" as="geometry" />
        </mxCell>
        <mxCell id="trqeZTf-BzL6byui2gxn-32" value="" style="edgeStyle=orthogonalEdgeStyle;rounded=0;orthogonalLoop=1;jettySize=auto;html=1;" edge="1" parent="1" source="trqeZTf-BzL6byui2gxn-23" target="trqeZTf-BzL6byui2gxn-31">
          <mxGeometry relative="1" as="geometry" />
        </mxCell>
        <mxCell id="trqeZTf-BzL6byui2gxn-23" value="绑定流程" style="whiteSpace=wrap;html=1;rounded=1;" vertex="1" parent="1">
          <mxGeometry x="-60" y="565" width="120" height="60" as="geometry" />
        </mxCell>
        <mxCell id="trqeZTf-BzL6byui2gxn-28" style="edgeStyle=orthogonalEdgeStyle;rounded=0;orthogonalLoop=1;jettySize=auto;html=1;entryX=0;entryY=0.5;entryDx=0;entryDy=0;" edge="1" parent="1" source="trqeZTf-BzL6byui2gxn-26" target="trqeZTf-BzL6byui2gxn-23">
          <mxGeometry relative="1" as="geometry">
            <Array as="points">
              <mxPoint x="-180" y="595" />
            </Array>
          </mxGeometry>
        </mxCell>
        <mxCell id="trqeZTf-BzL6byui2gxn-26" value="创建流程图" style="whiteSpace=wrap;html=1;rounded=1;" vertex="1" parent="1">
          <mxGeometry x="-240" y="460" width="120" height="60" as="geometry" />
        </mxCell>
        <mxCell id="trqeZTf-BzL6byui2gxn-34" value="" style="edgeStyle=orthogonalEdgeStyle;rounded=0;orthogonalLoop=1;jettySize=auto;html=1;" edge="1" parent="1" source="trqeZTf-BzL6byui2gxn-31" target="trqeZTf-BzL6byui2gxn-33">
          <mxGeometry relative="1" as="geometry" />
        </mxCell>
        <mxCell id="trqeZTf-BzL6byui2gxn-36" value="" style="edgeStyle=orthogonalEdgeStyle;rounded=0;orthogonalLoop=1;jettySize=auto;html=1;" edge="1" parent="1" source="trqeZTf-BzL6byui2gxn-31" target="trqeZTf-BzL6byui2gxn-35">
          <mxGeometry relative="1" as="geometry" />
        </mxCell>
        <mxCell id="trqeZTf-BzL6byui2gxn-31" value="用已有表单？" style="rhombus;whiteSpace=wrap;html=1;rounded=1;" vertex="1" parent="1">
          <mxGeometry x="-60" y="660" width="120" height="70" as="geometry" />
        </mxCell>
        <mxCell id="trqeZTf-BzL6byui2gxn-41" value="" style="edgeStyle=orthogonalEdgeStyle;rounded=0;orthogonalLoop=1;jettySize=auto;html=1;" edge="1" parent="1" source="trqeZTf-BzL6byui2gxn-33" target="trqeZTf-BzL6byui2gxn-40">
          <mxGeometry relative="1" as="geometry" />
        </mxCell>
        <mxCell id="trqeZTf-BzL6byui2gxn-33" value="绑定表单" style="whiteSpace=wrap;html=1;rounded=1;" vertex="1" parent="1">
          <mxGeometry x="-60" y="780" width="120" height="60" as="geometry" />
        </mxCell>
        <mxCell id="trqeZTf-BzL6byui2gxn-39" style="edgeStyle=orthogonalEdgeStyle;rounded=0;orthogonalLoop=1;jettySize=auto;html=1;entryX=0;entryY=0.5;entryDx=0;entryDy=0;" edge="1" parent="1" source="trqeZTf-BzL6byui2gxn-35" target="trqeZTf-BzL6byui2gxn-33">
          <mxGeometry relative="1" as="geometry">
            <Array as="points">
              <mxPoint x="-180" y="810" />
            </Array>
          </mxGeometry>
        </mxCell>
        <mxCell id="trqeZTf-BzL6byui2gxn-35" value="创建表单&lt;br&gt;设置表单&lt;br&gt;部署表单" style="whiteSpace=wrap;html=1;rounded=1;" vertex="1" parent="1">
          <mxGeometry x="-240" y="665" width="120" height="60" as="geometry" />
        </mxCell>
        <mxCell id="trqeZTf-BzL6byui2gxn-43" value="" style="edgeStyle=orthogonalEdgeStyle;rounded=0;orthogonalLoop=1;jettySize=auto;html=1;" edge="1" parent="1" source="trqeZTf-BzL6byui2gxn-40" target="trqeZTf-BzL6byui2gxn-42">
          <mxGeometry relative="1" as="geometry" />
        </mxCell>
        <mxCell id="trqeZTf-BzL6byui2gxn-40" value="设置工单类型为普通工单" style="whiteSpace=wrap;html=1;rounded=1;" vertex="1" parent="1">
          <mxGeometry x="-60" y="910" width="120" height="60" as="geometry" />
        </mxCell>
        <mxCell id="trqeZTf-BzL6byui2gxn-45" value="" style="edgeStyle=orthogonalEdgeStyle;rounded=0;orthogonalLoop=1;jettySize=auto;html=1;" edge="1" parent="1" source="trqeZTf-BzL6byui2gxn-42" target="trqeZTf-BzL6byui2gxn-44">
          <mxGeometry relative="1" as="geometry" />
        </mxCell>
        <mxCell id="trqeZTf-BzL6byui2gxn-42" value="设置租户工单状态为禁用" style="whiteSpace=wrap;html=1;rounded=1;" vertex="1" parent="1">
          <mxGeometry x="-60" y="1010" width="120" height="60" as="geometry" />
        </mxCell>
        <mxCell id="trqeZTf-BzL6byui2gxn-57" value="" style="edgeStyle=orthogonalEdgeStyle;rounded=0;orthogonalLoop=1;jettySize=auto;html=1;exitX=0.5;exitY=1;exitDx=0;exitDy=0;" edge="1" parent="1" source="trqeZTf-BzL6byui2gxn-44" target="trqeZTf-BzL6byui2gxn-56">
          <mxGeometry relative="1" as="geometry">
            <mxPoint x="-2.5" y="1190" as="sourcePoint" />
          </mxGeometry>
        </mxCell>
        <mxCell id="trqeZTf-BzL6byui2gxn-44" value="设置其他属性" style="whiteSpace=wrap;html=1;rounded=1;" vertex="1" parent="1">
          <mxGeometry x="-60" y="1100" width="120" height="60" as="geometry" />
        </mxCell>
        <mxCell id="trqeZTf-BzL6byui2gxn-49" value="工单绑定表单，流程" style="text;html=1;strokeColor=none;fillColor=none;align=center;verticalAlign=middle;whiteSpace=wrap;rounded=0;fontSize=17;labelBackgroundColor=default;" vertex="1" parent="1">
          <mxGeometry x="-250" y="287" width="160" height="53" as="geometry" />
        </mxCell>
        <mxCell id="trqeZTf-BzL6byui2gxn-55" value="为工单类型设置规则" style="rounded=1;whiteSpace=wrap;html=1;" vertex="1" parent="1">
          <mxGeometry x="866.25" y="470" width="120" height="60" as="geometry" />
        </mxCell>
        <mxCell id="trqeZTf-BzL6byui2gxn-61" value="" style="edgeStyle=orthogonalEdgeStyle;rounded=0;orthogonalLoop=1;jettySize=auto;html=1;" edge="1" parent="1" source="trqeZTf-BzL6byui2gxn-56" target="trqeZTf-BzL6byui2gxn-60">
          <mxGeometry relative="1" as="geometry" />
        </mxCell>
        <mxCell id="trqeZTf-BzL6byui2gxn-56" value="为流程节点绑定按钮" style="whiteSpace=wrap;html=1;rounded=1;" vertex="1" parent="1">
          <mxGeometry x="-62.5" y="1240" width="120" height="61" as="geometry" />
        </mxCell>
        <mxCell id="trqeZTf-BzL6byui2gxn-63" value="" style="edgeStyle=orthogonalEdgeStyle;rounded=0;orthogonalLoop=1;jettySize=auto;html=1;" edge="1" parent="1" source="trqeZTf-BzL6byui2gxn-60" target="trqeZTf-BzL6byui2gxn-62">
          <mxGeometry relative="1" as="geometry" />
        </mxCell>
        <mxCell id="trqeZTf-BzL6byui2gxn-65" value="" style="edgeStyle=orthogonalEdgeStyle;rounded=0;orthogonalLoop=1;jettySize=auto;html=1;" edge="1" parent="1" source="trqeZTf-BzL6byui2gxn-60" target="trqeZTf-BzL6byui2gxn-64">
          <mxGeometry relative="1" as="geometry" />
        </mxCell>
        <mxCell id="trqeZTf-BzL6byui2gxn-66" value="是" style="edgeLabel;html=1;align=center;verticalAlign=middle;resizable=0;points=[];" vertex="1" connectable="0" parent="trqeZTf-BzL6byui2gxn-65">
          <mxGeometry x="-0.3926" y="2" relative="1" as="geometry">
            <mxPoint as="offset" />
          </mxGeometry>
        </mxCell>
        <mxCell id="trqeZTf-BzL6byui2gxn-60" value="按钮绑定后端&lt;br&gt;调用地址？" style="rhombus;whiteSpace=wrap;html=1;rounded=1;" vertex="1" parent="1">
          <mxGeometry x="-67.5" y="1340" width="130" height="70" as="geometry" />
        </mxCell>
        <mxCell id="trqeZTf-BzL6byui2gxn-70" value="" style="edgeStyle=orthogonalEdgeStyle;rounded=0;orthogonalLoop=1;jettySize=auto;html=1;" edge="1" parent="1" source="trqeZTf-BzL6byui2gxn-62" target="trqeZTf-BzL6byui2gxn-69">
          <mxGeometry relative="1" as="geometry" />
        </mxCell>
        <mxCell id="trqeZTf-BzL6byui2gxn-75" value="" style="edgeStyle=orthogonalEdgeStyle;rounded=0;orthogonalLoop=1;jettySize=auto;html=1;" edge="1" parent="1" source="trqeZTf-BzL6byui2gxn-62" target="trqeZTf-BzL6byui2gxn-74">
          <mxGeometry relative="1" as="geometry" />
        </mxCell>
        <mxCell id="trqeZTf-BzL6byui2gxn-76" value="是" style="edgeLabel;html=1;align=center;verticalAlign=middle;resizable=0;points=[];" vertex="1" connectable="0" parent="trqeZTf-BzL6byui2gxn-75">
          <mxGeometry x="-0.2137" y="2" relative="1" as="geometry">
            <mxPoint x="-1" as="offset" />
          </mxGeometry>
        </mxCell>
        <mxCell id="trqeZTf-BzL6byui2gxn-62" value="按钮绑定前端&lt;br&gt;调用地址？" style="rhombus;whiteSpace=wrap;html=1;rounded=1;" vertex="1" parent="1">
          <mxGeometry x="-67.5" y="1450" width="130" height="70" as="geometry" />
        </mxCell>
        <mxCell id="trqeZTf-BzL6byui2gxn-64" value="由对接方后端提供" style="whiteSpace=wrap;html=1;rounded=1;" vertex="1" parent="1">
          <mxGeometry x="-232.5" y="1345" width="120" height="60" as="geometry" />
        </mxCell>
        <mxCell id="trqeZTf-BzL6byui2gxn-72" value="" style="edgeStyle=orthogonalEdgeStyle;rounded=0;orthogonalLoop=1;jettySize=auto;html=1;" edge="1" parent="1" source="trqeZTf-BzL6byui2gxn-69" target="trqeZTf-BzL6byui2gxn-71">
          <mxGeometry relative="1" as="geometry" />
        </mxCell>
        <mxCell id="trqeZTf-BzL6byui2gxn-102" value="是" style="edgeLabel;html=1;align=center;verticalAlign=middle;resizable=0;points=[];" vertex="1" connectable="0" parent="trqeZTf-BzL6byui2gxn-72">
          <mxGeometry x="-0.4444" y="3" relative="1" as="geometry">
            <mxPoint x="1" as="offset" />
          </mxGeometry>
        </mxCell>
        <mxCell id="trqeZTf-BzL6byui2gxn-83" value="" style="edgeStyle=orthogonalEdgeStyle;rounded=0;orthogonalLoop=1;jettySize=auto;html=1;" edge="1" parent="1" source="trqeZTf-BzL6byui2gxn-69" target="trqeZTf-BzL6byui2gxn-82">
          <mxGeometry relative="1" as="geometry" />
        </mxCell>
        <mxCell id="trqeZTf-BzL6byui2gxn-69" value="按钮原因文案&lt;br&gt;绑定校验地址？" style="rhombus;whiteSpace=wrap;html=1;rounded=1;" vertex="1" parent="1">
          <mxGeometry x="-67.5" y="1560" width="130" height="70" as="geometry" />
        </mxCell>
        <mxCell id="trqeZTf-BzL6byui2gxn-71" value="由对接方后端提供" style="whiteSpace=wrap;html=1;rounded=1;" vertex="1" parent="1">
          <mxGeometry x="-232.5" y="1565" width="120" height="60" as="geometry" />
        </mxCell>
        <mxCell id="trqeZTf-BzL6byui2gxn-78" value="" style="edgeStyle=orthogonalEdgeStyle;rounded=0;orthogonalLoop=1;jettySize=auto;html=1;" edge="1" parent="1" source="trqeZTf-BzL6byui2gxn-74" target="trqeZTf-BzL6byui2gxn-77">
          <mxGeometry relative="1" as="geometry" />
        </mxCell>
        <mxCell id="trqeZTf-BzL6byui2gxn-79" value="否" style="edgeLabel;html=1;align=center;verticalAlign=middle;resizable=0;points=[];" vertex="1" connectable="0" parent="trqeZTf-BzL6byui2gxn-78">
          <mxGeometry x="-0.1765" y="4" relative="1" as="geometry">
            <mxPoint y="-4" as="offset" />
          </mxGeometry>
        </mxCell>
        <mxCell id="trqeZTf-BzL6byui2gxn-74" value="是否使用通用页面？" style="rhombus;whiteSpace=wrap;html=1;rounded=1;" vertex="1" parent="1">
          <mxGeometry x="-242.5" y="1450" width="130" height="70" as="geometry" />
        </mxCell>
        <mxCell id="trqeZTf-BzL6byui2gxn-77" value="找前端提供新页面" style="whiteSpace=wrap;html=1;rounded=1;" vertex="1" parent="1">
          <mxGeometry x="-415.5" y="1455" width="120" height="60" as="geometry" />
        </mxCell>
        <mxCell id="trqeZTf-BzL6byui2gxn-99" style="edgeStyle=orthogonalEdgeStyle;rounded=0;orthogonalLoop=1;jettySize=auto;html=1;entryX=0.5;entryY=0;entryDx=0;entryDy=0;" edge="1" parent="1" source="trqeZTf-BzL6byui2gxn-82" target="trqeZTf-BzL6byui2gxn-101">
          <mxGeometry relative="1" as="geometry">
            <mxPoint x="-2" y="1810" as="targetPoint" />
          </mxGeometry>
        </mxCell>
        <mxCell id="trqeZTf-BzL6byui2gxn-82" value="发布流程" style="whiteSpace=wrap;html=1;rounded=1;" vertex="1" parent="1">
          <mxGeometry x="-62.5" y="1660" width="120" height="60" as="geometry" />
        </mxCell>
        <mxCell id="trqeZTf-BzL6byui2gxn-89" value="流程绑定操作" style="text;html=1;strokeColor=none;fillColor=none;align=center;verticalAlign=middle;whiteSpace=wrap;rounded=0;fontSize=17;labelBackgroundColor=default;" vertex="1" parent="1">
          <mxGeometry x="-362.5" y="1190" width="120" height="50" as="geometry" />
        </mxCell>
        <mxCell id="trqeZTf-BzL6byui2gxn-90" value="" style="rounded=0;whiteSpace=wrap;html=1;fillColor=none;dashed=1;" vertex="1" parent="1">
          <mxGeometry x="-310" y="880" width="430" height="300" as="geometry" />
        </mxCell>
        <mxCell id="trqeZTf-BzL6byui2gxn-91" value="工单属性配置" style="text;html=1;strokeColor=none;fillColor=none;align=center;verticalAlign=middle;whiteSpace=wrap;rounded=0;fontSize=17;labelBackgroundColor=default;" vertex="1" parent="1">
          <mxGeometry x="-260" y="857" width="160" height="53" as="geometry" />
        </mxCell>
        <mxCell id="trqeZTf-BzL6byui2gxn-96" value="" style="rounded=0;whiteSpace=wrap;html=1;fillColor=none;dashed=1;" vertex="1" parent="1">
          <mxGeometry x="-450" y="1780" width="600" height="210" as="geometry" />
        </mxCell>
        <mxCell id="trqeZTf-BzL6byui2gxn-100" value="工单扩展信息配置" style="text;html=1;strokeColor=none;fillColor=none;align=center;verticalAlign=middle;whiteSpace=wrap;rounded=0;fontSize=17;labelBackgroundColor=default;" vertex="1" parent="1">
          <mxGeometry x="-377.5" y="1754" width="150" height="50" as="geometry" />
        </mxCell>
        <mxCell id="trqeZTf-BzL6byui2gxn-104" value="" style="edgeStyle=orthogonalEdgeStyle;rounded=0;orthogonalLoop=1;jettySize=auto;html=1;" edge="1" parent="1" source="trqeZTf-BzL6byui2gxn-101" target="trqeZTf-BzL6byui2gxn-103">
          <mxGeometry relative="1" as="geometry" />
        </mxCell>
        <mxCell id="trqeZTf-BzL6byui2gxn-105" value="是" style="edgeLabel;html=1;align=center;verticalAlign=middle;resizable=0;points=[];" vertex="1" connectable="0" parent="trqeZTf-BzL6byui2gxn-104">
          <mxGeometry x="-0.38" relative="1" as="geometry">
            <mxPoint x="1" as="offset" />
          </mxGeometry>
        </mxCell>
        <mxCell id="trqeZTf-BzL6byui2gxn-107" value="" style="edgeStyle=orthogonalEdgeStyle;rounded=0;orthogonalLoop=1;jettySize=auto;html=1;" edge="1" parent="1" source="trqeZTf-BzL6byui2gxn-101" target="trqeZTf-BzL6byui2gxn-106">
          <mxGeometry relative="1" as="geometry" />
        </mxCell>
        <mxCell id="trqeZTf-BzL6byui2gxn-101" value="工单详情页是否&lt;br&gt;需要展示更多&lt;br&gt;业务信息？" style="rhombus;whiteSpace=wrap;html=1;rounded=1;" vertex="1" parent="1">
          <mxGeometry x="-67.5" y="1805" width="130" height="70" as="geometry" />
        </mxCell>
        <mxCell id="trqeZTf-BzL6byui2gxn-103" value="由对接方后端提供&lt;br&gt;扩展信息接口" style="whiteSpace=wrap;html=1;rounded=1;" vertex="1" parent="1">
          <mxGeometry x="-237.5" y="1810" width="120" height="60" as="geometry" />
        </mxCell>
        <mxCell id="trqeZTf-BzL6byui2gxn-109" value="" style="edgeStyle=orthogonalEdgeStyle;rounded=0;orthogonalLoop=1;jettySize=auto;html=1;" edge="1" parent="1" source="trqeZTf-BzL6byui2gxn-106" target="trqeZTf-BzL6byui2gxn-108">
          <mxGeometry relative="1" as="geometry" />
        </mxCell>
        <mxCell id="trqeZTf-BzL6byui2gxn-106" value="工单类型绑定&lt;br&gt;扩展接口" style="whiteSpace=wrap;html=1;rounded=1;" vertex="1" parent="1">
          <mxGeometry x="-62.5" y="1910" width="120" height="60" as="geometry" />
        </mxCell>
        <mxCell id="trqeZTf-BzL6byui2gxn-108" value="结束" style="ellipse;whiteSpace=wrap;html=1;rounded=1;" vertex="1" parent="1">
          <mxGeometry x="-23.75" y="2020" width="42.5" height="40" as="geometry" />
        </mxCell>
      </root>
    </mxGraphModel>
  </diagram>
</mxfile>
